<svg xmlns="http://www.w3.org/2000/svg" width="20" height="20" viewBox="0 0 24 24" fill="#a8b3cf">
  <path d="M12 2C6.48 2 2 6.58 2 12.26c0 4.5 2.87 8.31 6.84 9.65.5.1.68-.22.68-.49 0-.24-.01-.87-.01-1.7-2.78.62-3.37-1.38-3.37-1.38-.46-1.2-1.13-1.52-1.13-1.52-.92-.64.07-.63.07-.63 1.02.07 1.56 1.07 1.56 1.07.9 1.58 2.36 1.12 2.94.86.09-.67.35-1.12.63-1.38-2.22-.26-4.56-1.13-4.56-5 0-1.1.39-2 .1-2.7 0 0 .84-.28 2.76 1.07.8-.23 1.66-.35 2.52-.35.86 0 1.72.12 2.52.35 1.92-1.35 2.76-1.07 2.76-1.07.48.7.1 1.6.1 2.7 0 3.88-2.34 4.73-4.57 4.98.36.32.67.94.67 1.9 0 1.38-.01 2.5-.01 2.84 0 .27.18.6.69.49C19.13 20.57 22 16.76 22 12.26 22 6.58 17.52 2 12 2z"/>
</svg>
